# xmcd
#
# Track frame offsets: 
#        150
#        12848
#        27254
#        47916
#        67941
#        88366
#        101675
#        115364
#
# Disc length: 1784 seconds
#
# Revision: 0
# Processed by: cddbd v1.5.2PL0 Copyright (c) Steve Scherf et al.
# Submitted via: ExactAudioCopy v0.95b3
#
DISCID=6606f608
DTITLE=Gluttony - Beyond The Veil Of Flesh [VIC077CD]
DYEAR=2014
DGENRE=Death Metal
TTITLE0=The Revenant
TTITLE1=Beyond The Veil Of Flesh
TTITLE2=Eaten Alive
TTITLE3=Raise The Dead
TTITLE4=Coffinborn
TTITLE5=Post Mortem Decapitation
TTITLE6=And Then You Rot
TTITLE7=On The Slab
EXTD=
EXTT0=
EXTT1=
EXTT2=
EXTT3=
EXTT4=
EXTT5=
EXTT6=
EXTT7=
PLAYORDER=
